<svg viewBox="0 0 165 250" fill="none" xmlns="http://www.w3.org/2000/svg">
    <path d="M113.397 77.6465C112.767 100.648 96.2547 121.06 80.2136 120.603C67.947 120.298 55.8376 102.933 56.3094 86.3292C56.6239 70.7918 75.6529 56.6254 95.7829 57.5394C112.138 58.301 112.767 68.9639 113.397 77.6465Z" fill="#CBBA9C"/>
    <path d="M74.5521 190.825C73.6085 186.865 72.3504 183.057 71.7213 179.249C71.2495 176.507 70.935 173.308 71.0923 171.175C72.0359 160.208 80.6854 155.486 87.4478 161.579C91.0649 164.778 93.7384 170.414 95.9401 177.421C102.073 196.462 106.477 215.198 108.364 233.629C108.993 240.027 108.836 245.663 106.791 248.557C104.432 251.909 100.029 249.319 95.4684 241.855C89.8068 232.715 85.2461 222.052 81.3145 210.476C78.7983 203.926 76.7538 197.376 74.5521 190.825Z" fill="#AFA999"/>
    <path d="M75.1811 40.7834C65.1162 36.6706 58.1965 22.3519 61.8136 12.4507C64.0153 6.05292 69.3623 2.85406 75.6529 1.02614C84.9316 -1.56342 91.0649 0.721479 96.0974 8.18549C101.444 16.1065 101.759 24.3321 95.9401 31.0345C92.9521 34.3857 89.335 37.4322 85.7179 40.0218C82.5726 42.3067 78.7982 42.459 75.1811 40.7834Z" fill="#847F7E"/>
    <path d="M108.207 162.036C92.1657 163.711 80.8426 159.751 71.4067 153.048C64.3298 148.022 59.1401 142.081 58.1965 134.464C57.8819 130.809 59.4546 127.914 64.3298 126.239C71.564 123.802 78.7982 121.364 86.3469 119.841C103.961 116.185 121.732 114.053 139.66 115.424C142.805 115.728 146.108 116.185 149.096 116.795C156.173 118.47 158.06 121.364 156.173 126.543C153.342 134.007 147.68 140.558 140.603 146.498C133.369 152.591 125.349 157.923 114.655 160.665C112.296 161.274 109.622 161.731 108.207 162.036Z" fill="#A0A799"/>
    <path d="M7.08537 54.1882C4.25459 55.7115 0.165704 57.6917 0.00843922 59.3673C-0.148826 61.1952 1.89564 64.2418 5.82726 64.8511C9.75889 65.4604 37.4375 64.8511 49.2324 63.0232C61.0273 61.1953 150.983 53.8836 156.33 47.1812C161.834 40.3265 163.092 31.9485 154.285 33.6241C145.479 35.2997 93.4239 42.0021 79.7418 42.0021C66.217 42.1544 11.9606 51.5987 7.08537 54.1882Z" fill="#B5A58A"/>
    <path d="M81.7863 27.531C74.0803 24.3321 68.4187 14.7355 70.6204 8.3378C72.0358 4.22498 75.8102 2.24473 80.3709 1.48309C87.1333 0.112152 91.694 1.94008 95.9401 6.96687C100.344 12.4506 100.815 17.9344 96.8837 22.0472C94.8393 24.1798 92.323 26.0077 89.6495 27.531C87.4478 28.7496 84.617 28.7496 81.7863 27.531Z" fill="#968E8D"/>
    <path d="M37.5947 49.923C35.393 51.1416 32.0905 52.6649 31.9332 54.1882C31.776 55.7114 33.5059 58.1487 36.6512 58.6056C39.7965 59.0626 61.9708 58.6056 71.4067 57.0824C80.8426 55.5591 152.87 49.7707 157.273 44.2869C161.677 38.8032 162.778 32.1008 155.544 33.3194C148.309 34.538 106.791 40.0218 95.7828 40.0218C84.9315 40.3264 41.5264 47.9428 37.5947 49.923Z" fill="#C6AE8C"/>
    <path d="M113.554 72.9244C113.082 90.442 100.501 105.979 88.2341 105.675C78.7982 105.37 69.6768 92.27 69.9914 79.4745C70.3059 67.593 84.7743 56.7778 100.186 57.5394C112.453 58.1487 112.925 66.3744 113.554 72.9244Z" fill="#DDC6AD"/>
    <path d="M123.619 149.088C112.61 150.306 104.904 147.565 98.4563 142.842C93.5811 139.339 89.964 135.378 89.4922 130.047C89.1777 127.61 90.4358 125.477 93.7384 124.411C98.6136 122.735 103.646 121.06 108.836 119.993C120.788 117.556 133.055 116.033 145.321 116.947C147.523 117.099 149.725 117.404 151.769 117.861C156.644 119.079 157.903 120.907 156.644 124.563C154.757 129.59 150.826 134.16 146.108 138.273C141.232 142.385 135.728 146.041 128.337 148.022C126.292 148.631 124.405 148.936 123.619 149.088Z" fill="#B2B6AB"/>
    <path d="M86.1897 189.302C85.4034 186.408 84.4598 183.361 83.8307 180.62C83.3589 178.487 83.0444 176.202 82.8871 174.527C82.7298 166.453 86.976 163.407 91.0649 168.433C93.2666 171.023 94.9965 175.44 96.7264 180.62C101.287 195.091 104.904 209.257 106.949 222.966C107.735 227.689 108.05 231.954 107.106 233.934C106.005 236.219 103.489 234.086 100.501 228.298C96.8837 221.291 93.7384 212.913 90.7504 204.078C89.335 199.203 87.7623 194.177 86.1897 189.302Z" fill="#B9B8A8"/>
</svg>
