<svg width="700" height="250" viewBox="0 0 700 250" fill="none" xmlns="http://www.w3.org/2000/svg">
    <path d="M113.397 77.6465C112.767 100.648 96.2547 121.06 80.2136 120.603C67.947 120.298 55.8376 102.933 56.3094 86.3292C56.6239 70.7918 75.6529 56.6254 95.7829 57.5394C112.138 58.301 112.767 68.9639 113.397 77.6465Z" fill="#CBBA9C"/>
    <path d="M74.5521 190.825C73.6085 186.865 72.3504 183.057 71.7213 179.249C71.2495 176.507 70.935 173.308 71.0923 171.175C72.0359 160.208 80.6854 155.486 87.4478 161.579C91.0649 164.778 93.7384 170.414 95.9401 177.421C102.073 196.462 106.477 215.198 108.364 233.629C108.993 240.027 108.836 245.663 106.791 248.557C104.432 251.909 100.029 249.319 95.4684 241.855C89.8068 232.715 85.2461 222.052 81.3145 210.476C78.7983 203.926 76.7538 197.376 74.5521 190.825Z" fill="#AFA999"/>
    <path d="M75.1811 40.7834C65.1162 36.6706 58.1965 22.3519 61.8136 12.4507C64.0153 6.05292 69.3623 2.85406 75.6529 1.02614C84.9316 -1.56342 91.0649 0.721479 96.0974 8.18549C101.444 16.1065 101.759 24.3321 95.9401 31.0345C92.9521 34.3857 89.335 37.4322 85.7179 40.0218C82.5726 42.3067 78.7982 42.459 75.1811 40.7834Z" fill="#847F7E"/>
    <path d="M108.207 162.036C92.1657 163.711 80.8426 159.751 71.4067 153.048C64.3298 148.022 59.1401 142.081 58.1965 134.464C57.8819 130.809 59.4546 127.914 64.3298 126.239C71.564 123.802 78.7982 121.364 86.3469 119.841C103.961 116.185 121.732 114.053 139.66 115.424C142.805 115.728 146.108 116.185 149.096 116.795C156.173 118.47 158.06 121.364 156.173 126.543C153.342 134.007 147.68 140.558 140.603 146.498C133.369 152.591 125.349 157.923 114.655 160.665C112.296 161.274 109.622 161.731 108.207 162.036Z" fill="#A0A799"/>
    <path d="M7.08537 54.1882C4.25459 55.7115 0.165704 57.6917 0.00843922 59.3673C-0.148826 61.1952 1.89564 64.2418 5.82726 64.8511C9.75889 65.4604 37.4375 64.8511 49.2324 63.0232C61.0273 61.1953 150.983 53.8836 156.33 47.1812C161.834 40.3265 163.092 31.9485 154.285 33.6241C145.479 35.2997 93.4239 42.0021 79.7418 42.0021C66.217 42.1544 11.9606 51.5987 7.08537 54.1882Z" fill="#B5A58A"/>
    <path d="M81.7863 27.531C74.0803 24.3321 68.4187 14.7355 70.6204 8.3378C72.0358 4.22498 75.8102 2.24473 80.3709 1.48309C87.1333 0.112152 91.694 1.94008 95.9401 6.96687C100.344 12.4506 100.815 17.9344 96.8837 22.0472C94.8393 24.1798 92.323 26.0077 89.6495 27.531C87.4478 28.7496 84.617 28.7496 81.7863 27.531Z" fill="#968E8D"/>
    <path d="M37.5947 49.923C35.393 51.1416 32.0905 52.6649 31.9332 54.1882C31.776 55.7114 33.5059 58.1487 36.6512 58.6056C39.7965 59.0626 61.9708 58.6056 71.4067 57.0824C80.8426 55.5591 152.87 49.7707 157.273 44.2869C161.677 38.8032 162.778 32.1008 155.544 33.3194C148.309 34.538 106.791 40.0218 95.7828 40.0218C84.9315 40.3264 41.5264 47.9428 37.5947 49.923Z" fill="#C6AE8C"/>
    <path d="M113.554 72.9244C113.082 90.442 100.501 105.979 88.2341 105.675C78.7982 105.37 69.6768 92.27 69.9914 79.4745C70.3059 67.593 84.7743 56.7778 100.186 57.5394C112.453 58.1487 112.925 66.3744 113.554 72.9244Z" fill="#DDC6AD"/>
    <path d="M123.619 149.088C112.61 150.306 104.904 147.565 98.4563 142.842C93.5811 139.339 89.964 135.378 89.4922 130.047C89.1777 127.61 90.4358 125.477 93.7384 124.411C98.6136 122.735 103.646 121.06 108.836 119.993C120.788 117.556 133.055 116.033 145.321 116.947C147.523 117.099 149.725 117.404 151.769 117.861C156.644 119.079 157.903 120.907 156.644 124.563C154.757 129.59 150.826 134.16 146.108 138.273C141.232 142.385 135.728 146.041 128.337 148.022C126.292 148.631 124.405 148.936 123.619 149.088Z" fill="#B2B6AB"/>
    <path d="M86.1897 189.302C85.4034 186.408 84.4598 183.361 83.8307 180.62C83.3589 178.487 83.0444 176.202 82.8871 174.527C82.7298 166.453 86.976 163.407 91.0649 168.433C93.2666 171.023 94.9965 175.44 96.7264 180.62C101.287 195.091 104.904 209.257 106.949 222.966C107.735 227.689 108.05 231.954 107.106 233.934C106.005 236.219 103.489 234.086 100.501 228.298C96.8837 221.291 93.7384 212.913 90.7504 204.078C89.335 199.203 87.7623 194.177 86.1897 189.302Z" fill="#B9B8A8"/>
    <path d="M367.685 96.5465C367.597 96.2898 367.862 95.6482 368.48 94.6216C369.099 93.5094 369.761 92.1833 370.468 90.6434C371.263 89.018 372.013 87.2214 372.72 85.2537C373.515 83.2005 374.045 81.1045 374.31 78.9657C374.663 76.8269 374.663 74.6882 374.31 72.5494C373.957 70.4106 373.029 68.3574 371.528 66.3897C370.644 65.3631 369.319 64.807 367.553 64.7215C365.875 64.5504 363.932 64.807 361.724 65.4914C359.604 66.0903 357.352 67.0741 354.967 68.4429C352.67 69.7262 350.551 71.2661 348.607 73.0627C346.664 74.7737 344.986 76.6986 343.573 78.8374C342.248 80.9762 341.497 83.1577 341.321 85.382C341.144 87.1786 341.188 88.8469 341.453 90.3868C341.806 91.9267 342.248 93.3383 342.778 94.6216C343.308 95.9048 343.882 97.1025 344.5 98.2147C345.119 99.3269 345.693 100.311 346.223 101.166C346.929 102.364 348.033 103.69 349.535 105.144C351.036 106.599 352.67 108.267 354.437 110.149C356.203 111.946 357.97 113.999 359.736 116.309C361.503 118.619 363.048 121.228 364.373 124.137C365.698 127.045 366.626 130.296 367.156 133.889C367.685 137.483 367.641 141.461 367.023 145.824C366.051 152.155 364.506 157.416 362.386 161.608C360.266 165.886 357.926 169.308 355.364 171.874C352.891 174.441 350.374 176.28 347.812 177.392C345.251 178.59 343.131 179.36 341.453 179.702C340.128 179.959 338.538 180.173 336.684 180.344C334.917 180.6 333.018 180.558 330.987 180.215C329.044 179.959 327.056 179.36 325.025 178.419C322.993 177.563 321.183 176.195 319.593 174.312C317.738 172.174 316.281 169.864 315.221 167.383C314.249 165.244 313.543 162.763 313.101 159.94C312.571 157.202 312.792 154.336 313.763 151.342C314.47 150.572 315.221 149.888 316.016 149.289C316.811 148.69 317.606 148.177 318.4 147.749C319.284 147.235 320.211 146.765 321.183 146.337C322.331 145.995 323.479 145.696 324.627 145.439C325.599 145.268 326.615 145.182 327.675 145.182C328.823 145.097 329.883 145.225 330.854 145.567C329.529 147.022 328.602 148.39 328.072 149.674C327.719 150.358 327.454 150.957 327.277 151.47C326.924 153.096 326.791 155.021 326.88 157.245C327.056 159.555 327.542 161.736 328.337 163.79C329.22 165.928 330.457 167.725 332.047 169.179C333.636 170.719 335.756 171.532 338.406 171.618C344.854 171.789 350.33 166.912 354.834 156.988C356.336 153.908 357.087 150.786 357.087 147.62C357.175 144.455 356.777 141.418 355.894 138.509C355.099 135.601 353.995 132.906 352.582 130.425C351.257 127.858 349.888 125.677 348.475 123.88C347.062 122.083 345.339 120.159 343.308 118.105C341.365 115.967 339.422 113.657 337.479 111.176C335.535 108.695 333.769 106 332.179 103.091C330.678 100.182 329.662 97.017 329.132 93.5949C328.425 88.8041 328.867 84.441 330.457 80.5056C332.135 76.4847 334.343 72.9771 337.081 69.9828C339.907 66.9886 342.955 64.5504 346.223 62.6682C349.579 60.7861 352.538 59.5884 355.099 59.0751C369.319 56.3375 378.638 58.6473 383.054 66.0047C384.909 68.8279 385.924 71.8222 386.101 74.9876C386.278 78.153 386.057 81.1045 385.439 83.8421C384.909 86.4942 384.202 88.7613 383.319 90.6434C382.524 92.44 381.994 93.4238 381.729 93.5949C381.199 94.1082 380.36 94.6643 379.212 95.2632C378.064 95.862 376.209 96.4181 373.647 96.9314C372.941 97.1025 372.234 97.1881 371.528 97.1881C370.909 97.1881 370.247 97.1453 369.54 97.0598C368.834 96.9742 368.215 96.8031 367.685 96.5465Z" fill="#C6AE8C"/>
    <path d="M432.339 122.982C432.692 122.468 433.134 122.169 433.664 122.083C434.282 121.912 434.768 121.955 435.121 122.212C435.475 122.468 435.651 122.896 435.651 123.495C435.739 124.094 435.519 124.907 434.989 125.933C433.222 129.184 430.882 132.692 427.967 136.456C425.141 140.22 422.138 143.771 418.958 147.107C415.778 150.358 412.687 153.053 409.684 155.192C406.681 157.33 404.163 158.4 402.132 158.4C399.217 158.4 396.788 157.844 394.845 156.732C392.902 155.619 391.356 154.251 390.208 152.625C389.148 151 388.398 149.246 387.956 147.364C387.514 145.396 387.382 143.6 387.559 141.974C387.647 140.605 387.956 138.167 388.486 134.659C389.016 131.066 389.722 126.96 390.606 122.34C391.489 117.635 392.461 112.63 393.52 107.326C394.669 101.936 395.861 96.7603 397.098 91.7984C395.596 91.9695 394.095 92.1406 392.593 92.3117C391.091 92.4828 389.722 92.5683 388.486 92.5683C385.66 92.5683 383.01 92.2689 380.537 91.67C377.975 90.9856 376.076 90.344 374.84 89.7451C374.133 89.4029 373.824 88.9324 373.912 88.3336C374.001 87.6491 374.266 87.0075 374.707 86.4087C375.149 85.7242 375.723 85.1682 376.43 84.7404C377.048 84.2271 377.622 83.9704 378.152 83.9704C379.83 84.1415 381.641 84.3127 383.584 84.4838C385.527 84.5693 387.647 84.5693 389.943 84.4838C391.621 84.3982 393.211 84.2699 394.713 84.0988C396.303 83.9277 397.848 83.7138 399.35 83.4571C400.498 79.3507 401.602 75.8003 402.662 72.806C403.81 69.7262 404.826 67.5874 405.709 66.3897C405.974 65.9619 406.548 65.6197 407.432 65.3631C408.403 65.0209 409.419 64.807 410.479 64.7215C411.539 64.5504 412.554 64.5504 413.526 64.7215C414.497 64.807 415.204 65.1064 415.646 65.6197C416.087 66.3042 416.264 68.0579 416.176 70.8811C416.087 73.7043 415.602 77.2975 414.718 81.6606C418.428 81.6606 421.696 81.8744 424.522 82.3022C427.437 82.6444 429.91 83.0722 431.942 83.5855C433.973 84.0132 435.607 84.4838 436.844 84.9971C438.08 85.4248 439.008 85.7242 439.626 85.8953C440.244 86.0664 440.553 86.4942 440.553 87.1786C440.642 87.863 440.509 88.5902 440.156 89.3602C439.891 90.0446 439.405 90.6434 438.698 91.1567C437.992 91.67 437.197 91.8411 436.314 91.67C435.43 91.5845 434.415 91.4134 433.266 91.1567C432.207 90.9001 430.882 90.6862 429.292 90.5151C427.79 90.344 425.98 90.1729 423.86 90.0018C421.74 89.8307 419.267 89.7451 416.441 89.7451C415.911 89.7451 415.292 89.7879 414.586 89.8735C413.968 89.8735 413.305 89.8735 412.598 89.8735C412.245 91.2423 411.892 92.6111 411.539 93.9799C411.274 95.2632 410.876 96.632 410.346 98.0864C409.198 101.508 407.873 105.23 406.372 109.251C405.047 112.758 403.457 116.779 401.602 121.313C399.747 125.848 397.672 130.681 395.375 135.814C394.845 139.493 394.889 142.316 395.508 144.284C396.214 146.166 397.053 147.535 398.025 148.39C399.173 149.331 400.586 149.845 402.265 149.93C403.589 150.101 405.179 149.674 407.034 148.647C408.977 147.535 410.964 146.081 412.996 144.284C415.027 142.487 417.059 140.52 419.09 138.381C421.21 136.242 423.153 134.146 424.92 132.093C426.686 130.04 428.232 128.2 429.557 126.575C430.882 124.864 431.809 123.666 432.339 122.982Z" fill="#C6AE8C"/>
    <path d="M492.355 129.911C491.119 131.622 489.529 133.761 487.586 136.328C485.643 138.809 483.611 141.332 481.492 143.899C479.46 146.38 477.429 148.69 475.397 150.829C473.454 152.882 471.82 154.336 470.495 155.192C469.612 155.705 468.596 156.133 467.448 156.475C466.3 156.817 465.107 157.031 463.871 157.117C462.723 157.202 461.619 157.117 460.559 156.86C459.499 156.689 458.571 156.347 457.776 155.833C456.982 155.234 456.319 154.379 455.789 153.267C455.348 152.326 454.906 151.085 454.464 149.545C454.111 148.005 453.979 146.081 454.067 143.771C451.947 147.193 449.606 149.845 447.045 151.727C444.484 153.523 442.055 154.85 439.758 155.705C437.109 156.646 434.459 157.202 431.809 157.373C430.573 157.373 429.248 156.946 427.834 156.09C426.421 155.32 425.229 154.08 424.257 152.369C423.286 150.572 422.667 148.305 422.403 145.567C422.138 142.744 422.491 139.408 423.462 135.558C424.699 130.339 426.642 125.591 429.292 121.313C432.03 117.036 434.989 113.4 438.168 110.406C441.348 107.326 444.484 105.016 447.575 103.476C450.666 101.936 453.228 101.252 455.259 101.423C457.644 101.851 459.587 102.535 461.089 103.476C462.325 104.332 463.12 105.615 463.473 107.326C463.915 108.951 463.208 111.133 461.354 113.871C462.59 113.614 463.606 113.443 464.401 113.357C465.284 113.272 465.946 113.229 466.388 113.229C466.918 113.229 467.271 113.272 467.448 113.357C467.536 113.528 467.58 113.913 467.58 114.512C467.58 115.025 467.448 116.009 467.183 117.464C466.918 118.918 466.521 120.886 465.991 123.367C465.461 125.848 464.754 129.056 463.871 132.991C463.694 133.761 463.518 134.488 463.341 135.173C463.253 135.772 463.12 136.413 462.943 137.098C462.855 137.697 462.723 138.424 462.546 139.279C462.369 140.135 462.149 141.204 461.884 142.487C461.795 143.257 461.751 144.113 461.751 145.054C461.839 145.909 462.016 146.722 462.281 147.492C462.546 148.262 462.943 148.904 463.473 149.417C464.092 149.845 464.931 150.059 465.991 150.059C466.874 150.059 468.022 149.545 469.435 148.519C470.848 147.407 472.35 146.038 473.94 144.412C475.53 142.701 477.164 140.862 478.842 138.894C480.608 136.841 482.242 134.873 483.744 132.991C485.245 131.109 486.57 129.441 487.718 127.986C488.955 126.532 489.838 125.463 490.368 124.778C491.075 124.008 491.781 123.581 492.488 123.495C493.195 123.324 493.725 123.495 494.078 124.008C494.431 124.522 494.475 125.292 494.21 126.318C494.034 127.345 493.415 128.543 492.355 129.911ZM453.537 135.558C453.979 133.847 454.508 131.836 455.127 129.526C455.745 127.217 456.275 124.992 456.717 122.853C457.158 120.715 457.467 118.961 457.644 117.592C457.909 116.138 457.865 115.453 457.511 115.539C457.07 115.624 456.584 115.753 456.054 115.924C455.613 116.095 455.038 116.223 454.332 116.309C453.625 116.394 452.919 116.523 452.212 116.694C452.919 115.325 453.316 114.213 453.404 113.357C453.581 112.416 453.625 111.689 453.537 111.176C453.449 110.577 453.272 110.106 453.007 109.764C452.035 108.994 450.313 109.636 447.84 111.689C445.455 113.657 442.673 117.335 439.493 122.725C438.168 124.949 437.109 127.345 436.314 129.911C435.519 132.392 434.945 134.745 434.591 136.969C434.326 139.194 434.282 141.161 434.459 142.872C434.635 144.498 434.989 145.567 435.519 146.081C436.49 147.022 437.594 147.492 438.831 147.492C440.067 147.407 441.304 147.064 442.54 146.466C443.865 145.781 445.146 144.926 446.383 143.899C447.707 142.872 448.856 141.803 449.827 140.691C450.887 139.579 451.726 138.552 452.344 137.611C453.051 136.67 453.449 135.985 453.537 135.558Z" fill="#C6AE8C"/>
    <path d="M532.366 122.982C532.72 122.468 533.161 122.169 533.691 122.083C534.31 121.912 534.795 121.955 535.149 122.212C535.502 122.468 535.679 122.896 535.679 123.495C535.767 124.094 535.546 124.907 535.016 125.933C533.25 129.184 530.909 132.692 527.994 136.456C525.168 140.22 522.165 143.771 518.985 147.107C515.806 150.358 512.714 153.053 509.711 155.192C506.708 157.33 504.191 158.4 502.16 158.4C499.245 158.4 496.816 157.844 494.873 156.732C492.93 155.619 491.384 154.251 490.236 152.625C489.176 151 488.425 149.246 487.983 147.364C487.542 145.396 487.409 143.6 487.586 141.974C487.674 140.605 487.983 138.167 488.513 134.659C489.043 131.066 489.75 126.96 490.633 122.34C491.516 117.635 492.488 112.63 493.548 107.326C494.696 101.936 495.888 96.7603 497.125 91.7984C495.623 91.9695 494.122 92.1406 492.62 92.3117C491.119 92.4828 489.75 92.5683 488.513 92.5683C485.687 92.5683 483.037 92.2689 480.564 91.67C478.003 90.9856 476.104 90.344 474.867 89.7451C474.161 89.4029 473.852 88.9324 473.94 88.3336C474.028 87.6491 474.293 87.0075 474.735 86.4087C475.176 85.7242 475.75 85.1682 476.457 84.7404C477.075 84.2271 477.649 83.9704 478.179 83.9704C479.858 84.1415 481.668 84.3127 483.611 84.4838C485.555 84.5693 487.674 84.5693 489.971 84.4838C491.649 84.3982 493.239 84.2699 494.74 84.0988C496.33 83.9277 497.876 83.7138 499.377 83.4571C500.525 79.3507 501.63 75.8003 502.689 72.806C503.838 69.7262 504.853 67.5874 505.737 66.3897C506.002 65.9619 506.576 65.6197 507.459 65.3631C508.431 65.0209 509.446 64.807 510.506 64.7215C511.566 64.5504 512.582 64.5504 513.553 64.7215C514.525 64.807 515.232 65.1064 515.673 65.6197C516.115 66.3042 516.291 68.0579 516.203 70.8811C516.115 73.7043 515.629 77.2975 514.746 81.6606C518.455 81.6606 521.723 81.8744 524.55 82.3022C527.464 82.6444 529.938 83.0722 531.969 83.5855C534 84.0132 535.634 84.4838 536.871 84.9971C538.108 85.4248 539.035 85.7242 539.653 85.8953C540.272 86.0664 540.581 86.4942 540.581 87.1786C540.669 87.863 540.536 88.5902 540.183 89.3602C539.918 90.0446 539.432 90.6434 538.726 91.1567C538.019 91.67 537.224 91.8411 536.341 91.67C535.458 91.5845 534.442 91.4134 533.294 91.1567C532.234 90.9001 530.909 90.6862 529.319 90.5151C527.818 90.344 526.007 90.1729 523.887 90.0018C521.768 89.8307 519.294 89.7451 516.468 89.7451C515.938 89.7451 515.32 89.7879 514.613 89.8735C513.995 89.8735 513.333 89.8735 512.626 89.8735C512.273 91.2423 511.919 92.6111 511.566 93.9799C511.301 95.2632 510.904 96.632 510.374 98.0864C509.225 101.508 507.901 105.23 506.399 109.251C505.074 112.758 503.484 116.779 501.63 121.313C499.775 125.848 497.699 130.681 495.403 135.814C494.873 139.493 494.917 142.316 495.535 144.284C496.242 146.166 497.081 147.535 498.052 148.39C499.201 149.331 500.614 149.845 502.292 149.93C503.617 150.101 505.207 149.674 507.062 148.647C509.005 147.535 510.992 146.081 513.023 144.284C515.055 142.487 517.086 140.52 519.118 138.381C521.238 136.242 523.181 134.146 524.947 132.093C526.714 130.04 528.259 128.2 529.584 126.575C530.909 124.864 531.837 123.666 532.366 122.982Z" fill="#C6AE8C"/>
    <path d="M584.434 128.756C581.784 132.521 578.781 136.199 575.425 139.793C572.068 143.3 568.491 146.465 564.693 149.289C560.984 152.026 557.142 154.251 553.167 155.962C549.281 157.673 545.483 158.528 541.773 158.528C539.83 158.528 537.71 158.058 535.414 157.117C533.206 156.261 531.174 154.892 529.319 153.01C527.464 151.128 525.963 148.69 524.815 145.696C523.755 142.701 523.446 139.065 523.887 134.788C524.241 131.28 525.345 127.601 527.2 123.752C529.143 119.816 531.483 116.223 534.221 112.972C537.048 109.721 540.183 107.026 543.628 104.888C547.161 102.749 550.694 101.68 554.227 101.68C557.583 101.68 560.012 102.492 561.514 104.118C563.015 105.743 563.678 107.754 563.501 110.149C563.236 112.801 562.441 115.239 561.116 117.464C559.88 119.688 558.378 121.698 556.612 123.495C554.845 125.292 552.946 126.917 550.915 128.371C548.971 129.826 547.117 131.152 545.35 132.35C543.407 133.633 541.552 134.873 539.786 136.071C538.019 137.183 536.474 138.21 535.149 139.151C535.237 141.29 535.634 143.086 536.341 144.541C537.048 145.995 537.931 147.193 538.991 148.134C540.051 148.989 541.243 149.631 542.568 150.059C543.981 150.401 545.394 150.572 546.808 150.572C549.811 150.572 552.946 149.674 556.214 147.877C559.482 145.995 562.662 143.771 565.753 141.204C568.933 138.552 571.848 135.814 574.497 132.991C577.235 130.168 579.488 127.73 581.254 125.677C581.872 124.992 582.491 124.607 583.109 124.522C583.815 124.351 584.345 124.436 584.699 124.778C585.14 125.035 585.361 125.548 585.361 126.318C585.361 127.003 585.052 127.815 584.434 128.756ZM550.517 108.994C549.457 108.994 548.177 109.507 546.675 110.534C545.262 111.561 543.849 113.058 542.435 115.025C541.022 116.908 539.697 119.26 538.461 122.083C537.224 124.821 536.297 127.986 535.679 131.58C536.739 130.81 537.887 130.04 539.123 129.27C540.36 128.414 541.596 127.516 542.833 126.575C546.631 123.752 549.281 121.271 550.782 119.132C552.284 116.993 553.123 115.154 553.299 113.614C553.476 111.988 553.299 110.833 552.769 110.149C552.239 109.379 551.489 108.994 550.517 108.994Z" fill="#C6AE8C"/>
    <path d="M569.86 154.807C569.242 155.748 568.58 156.347 567.873 156.603C567.078 156.946 566.416 156.988 565.886 156.732C565.267 156.561 564.87 156.133 564.693 155.448C564.517 154.764 564.693 153.908 565.223 152.882C565.488 152.369 566.106 151.214 567.078 149.417C567.961 147.62 569.065 145.482 570.39 143.001C571.627 140.434 572.996 137.697 574.497 134.788C575.999 131.793 577.412 128.97 578.737 126.318C580.15 123.666 581.431 121.313 582.579 119.26C583.727 117.121 584.566 115.582 585.096 114.641C584.125 113.785 583.462 113.186 583.109 112.844C582.756 112.416 582.491 111.561 582.314 110.277C582.137 109.165 582.402 107.711 583.109 105.914C583.815 104.118 584.743 102.407 585.891 100.781C587.039 99.0702 588.32 97.6158 589.733 96.4181C591.146 95.2204 592.515 94.6216 593.84 94.6216C596.313 94.6216 598.036 95.3915 599.007 96.9314C600.067 98.4714 600.685 100.054 600.862 101.68C601.039 102.792 600.95 104.203 600.597 105.914C600.244 107.625 599.581 109.165 598.61 110.534C598.875 110.705 599.228 110.919 599.67 111.176C600.111 111.347 600.818 111.432 601.79 111.432C603.203 111.432 604.174 111.347 604.704 111.176C605.323 111.005 606.25 110.919 607.486 110.919C608.988 110.919 610.225 111.304 611.196 112.074C612.168 112.758 612.963 113.657 613.581 114.769C614.199 115.795 614.641 116.95 614.906 118.234C615.259 119.431 615.48 120.544 615.568 121.57C615.833 123.709 615.259 125.933 613.846 128.243C612.433 130.553 610.71 133.077 608.679 135.814C607.442 137.525 606.206 139.45 604.969 141.589C603.733 143.728 603.203 145.653 603.379 147.364C603.556 148.476 603.865 149.374 604.307 150.059C604.748 150.743 605.985 151.085 608.016 151.085C609.518 151.085 611.152 150.572 612.918 149.545C614.773 148.433 616.628 147.064 618.483 145.439C620.426 143.728 622.325 141.889 624.18 139.921C626.035 137.868 627.757 135.9 629.347 134.018C630.937 132.05 632.261 130.296 633.321 128.756C634.47 127.217 635.309 126.104 635.839 125.42C636.28 124.736 636.854 124.265 637.561 124.008C638.268 123.752 638.886 123.752 639.416 124.008C639.946 124.265 640.255 124.778 640.343 125.548C640.52 126.318 640.211 127.345 639.416 128.628C638.886 129.484 637.958 130.852 636.634 132.735C635.397 134.617 633.851 136.713 631.996 139.023C630.23 141.332 628.243 143.728 626.035 146.209C623.827 148.604 621.486 150.829 619.013 152.882C616.628 154.85 614.199 156.475 611.726 157.758C609.341 159.042 607.045 159.683 604.837 159.683C602.54 159.683 600.641 159.255 599.14 158.4C597.638 157.544 596.402 156.518 595.43 155.32C594.547 154.037 593.884 152.668 593.443 151.214C593.09 149.674 592.957 148.262 593.045 146.979C593.134 145.952 593.399 144.883 593.84 143.771C594.37 142.573 594.944 141.375 595.563 140.178C596.269 138.894 596.976 137.654 597.682 136.456C598.477 135.173 599.184 133.932 599.802 132.735C601.304 130.254 602.496 128.158 603.379 126.447C604.351 124.65 604.837 123.153 604.837 121.955C604.837 121.185 604.66 120.501 604.307 119.902C603.953 119.303 603.379 119.004 602.584 119.004C602.055 119.004 601.657 119.046 601.392 119.132C601.215 119.132 600.995 119.132 600.73 119.132C600.553 119.132 600.244 119.175 599.802 119.26C599.449 119.26 598.875 119.26 598.08 119.26C596.932 119.26 595.96 119.089 595.165 118.747C594.37 118.405 593.62 118.148 592.913 117.977C592.56 118.576 591.765 119.859 590.528 121.827C589.292 123.794 587.834 126.104 586.156 128.756C584.566 131.409 582.844 134.189 580.989 137.098C579.223 140.006 577.544 142.744 575.955 145.311C574.365 147.792 573.04 149.93 571.98 151.727C570.832 153.438 570.125 154.465 569.86 154.807Z" fill="#C6AE8C"/>
    <path d="M697.975 129.911C696.738 131.622 695.148 133.761 693.205 136.328C691.262 138.809 689.231 141.332 687.111 143.899C685.079 146.38 683.048 148.69 681.017 150.829C679.073 152.882 677.439 154.336 676.115 155.192C675.231 155.705 674.216 156.133 673.067 156.475C671.919 156.817 670.727 157.031 669.49 157.117C668.342 157.202 667.238 157.117 666.178 156.86C665.118 156.689 664.191 156.347 663.396 155.833C662.601 155.234 661.938 154.379 661.409 153.267C660.967 152.326 660.525 151.085 660.084 149.545C659.73 148.005 659.598 146.081 659.686 143.771C657.566 147.193 655.226 149.845 652.664 151.727C650.103 153.523 647.674 154.85 645.378 155.705C642.728 156.646 640.078 157.202 637.428 157.373C636.192 157.373 634.867 156.946 633.454 156.09C632.041 155.32 630.848 154.08 629.877 152.369C628.905 150.572 628.287 148.305 628.022 145.567C627.757 142.744 628.11 139.408 629.082 135.558C630.318 130.339 632.261 125.591 634.911 121.313C637.649 117.036 640.608 113.4 643.788 110.406C646.967 107.326 650.103 105.016 653.194 103.476C656.286 101.936 658.847 101.252 660.879 101.423C663.263 101.851 665.206 102.535 666.708 103.476C667.945 104.332 668.739 105.615 669.093 107.326C669.534 108.951 668.828 111.133 666.973 113.871C668.21 113.614 669.225 113.443 670.02 113.357C670.903 113.272 671.566 113.229 672.007 113.229C672.537 113.229 672.891 113.272 673.067 113.357C673.156 113.528 673.2 113.913 673.2 114.512C673.2 115.025 673.067 116.009 672.802 117.464C672.537 118.918 672.14 120.886 671.61 123.367C671.08 125.848 670.373 129.056 669.49 132.991C669.314 133.761 669.137 134.488 668.96 135.173C668.872 135.772 668.739 136.413 668.563 137.098C668.474 137.697 668.342 138.424 668.165 139.279C667.989 140.135 667.768 141.204 667.503 142.487C667.415 143.257 667.37 144.113 667.37 145.054C667.459 145.909 667.635 146.722 667.9 147.492C668.165 148.262 668.563 148.904 669.093 149.417C669.711 149.845 670.55 150.059 671.61 150.059C672.493 150.059 673.641 149.545 675.055 148.519C676.468 147.407 677.969 146.038 679.559 144.412C681.149 142.701 682.783 140.862 684.461 138.894C686.228 136.841 687.862 134.873 689.363 132.991C690.865 131.109 692.19 129.441 693.338 127.986C694.574 126.532 695.458 125.463 695.988 124.778C696.694 124.008 697.401 123.581 698.107 123.495C698.814 123.324 699.344 123.495 699.697 124.008C700.051 124.522 700.095 125.292 699.83 126.318C699.653 127.345 699.035 128.543 697.975 129.911ZM659.156 135.558C659.598 133.847 660.128 131.836 660.746 129.526C661.364 127.217 661.894 124.992 662.336 122.853C662.778 120.715 663.087 118.961 663.263 117.592C663.528 116.138 663.484 115.453 663.131 115.539C662.689 115.624 662.203 115.753 661.673 115.924C661.232 116.095 660.658 116.223 659.951 116.309C659.245 116.394 658.538 116.523 657.831 116.694C658.538 115.325 658.935 114.213 659.024 113.357C659.2 112.416 659.245 111.689 659.156 111.176C659.068 110.577 658.891 110.106 658.626 109.764C657.655 108.994 655.932 109.636 653.459 111.689C651.075 113.657 648.292 117.335 645.113 122.725C643.788 124.949 642.728 127.345 641.933 129.911C641.138 132.392 640.564 134.745 640.211 136.969C639.946 139.194 639.902 141.161 640.078 142.872C640.255 144.498 640.608 145.567 641.138 146.081C642.11 147.022 643.214 147.492 644.45 147.492C645.687 147.407 646.923 147.064 648.16 146.466C649.485 145.781 650.765 144.926 652.002 143.899C653.327 142.872 654.475 141.803 655.447 140.691C656.507 139.579 657.346 138.552 657.964 137.611C658.67 136.67 659.068 135.985 659.156 135.558Z" fill="#C6AE8C"/>
    <path d="M248.959 82.978C248.802 81.9117 248.487 80.8454 248.015 79.9314C247.544 78.8652 246.915 78.1035 245.971 77.3419C245.027 76.5803 243.769 76.2756 242.354 76.2756C239.051 76.2756 235.591 77.1896 231.974 78.8652C228.515 80.6931 225.212 83.1303 222.381 86.3292C219.55 89.5281 217.191 93.4886 215.619 97.906C213.889 102.476 213.26 107.503 213.732 112.986C214.046 115.881 214.361 118.47 214.99 121.06C215.462 123.345 216.091 125.477 217.034 127.762C217.978 130.047 219.236 131.875 220.651 133.398C221.28 133.246 221.752 133.094 222.224 132.789C222.696 132.484 223.01 132.332 223.325 132.027C223.639 131.723 223.954 131.418 224.111 131.266C224.268 130.961 224.426 130.656 224.74 130.199C225.055 129.438 225.369 128.676 225.526 127.61C224.111 124.716 223.639 121.364 223.797 117.861C223.954 114.205 224.426 110.854 225.055 107.655C225.841 103.847 226.942 100.039 228.357 96.0781C229.144 94.0978 230.087 92.2699 231.345 90.442C232.603 88.7664 233.862 87.2431 235.12 86.0245C236.378 84.8059 237.479 83.8919 238.422 83.1303C239.366 82.521 239.995 82.2163 240.152 82.2163C240.624 82.3687 240.781 83.1303 240.624 84.6536C240.624 86.1769 240.467 87.8525 240.152 90.1374C239.838 92.2699 239.523 94.5548 239.051 96.9921C238.579 99.4293 238.108 101.714 237.636 103.694C236.378 108.721 234.962 114.357 233.39 120.298C231.817 125.782 230.402 131.266 228.986 136.597C228.829 137.054 228.672 137.511 228.672 137.968L225.526 148.174C224.426 151.525 223.482 154.724 222.538 157.466C221.28 161.122 220.179 163.864 219.393 165.691C218.764 166.91 218.135 168.129 217.349 169.652C216.562 171.175 215.776 172.546 214.832 173.765C213.889 174.983 212.945 176.05 211.844 176.964C210.586 177.725 207.913 181.076 208.856 182.6C209.328 183.361 209.957 183.818 210.901 183.818C212.945 183.209 214.99 182.143 217.034 180.62C220.022 178.182 222.853 174.983 225.369 171.175C227.885 167.367 230.244 162.95 232.289 158.075C234.333 153.201 239.051 141.167 239.995 137.816C241.096 133.855 242.197 130.352 243.14 127.153C244.084 123.954 244.713 121.212 245.185 119.232C246.128 115.424 246.757 112.072 247.386 109.026C248.015 105.979 248.33 103.085 248.644 100.343C248.959 97.6013 249.116 95.1641 249.274 92.7269C249.431 90.2897 249.431 87.8524 249.431 85.4152C249.116 84.9582 249.116 84.0443 248.959 82.978Z" fill="#B2B6AB"/>
    <path d="M286.469 157.366C284.643 157.366 283.055 157.02 281.705 156.328C280.434 155.713 279.402 154.867 278.608 153.79C277.814 152.713 277.298 151.483 277.06 150.098C276.822 148.637 276.901 147.099 277.298 145.484C277.536 144.407 277.933 142.984 278.489 141.216C279.045 139.37 279.601 137.409 280.156 135.332C280.792 133.179 281.348 131.064 281.824 128.987C282.38 126.834 282.737 124.911 282.896 123.219C283.055 121.45 282.975 120.027 282.658 118.951C282.34 117.797 281.665 117.22 280.633 117.22C279.362 117.22 278.052 117.643 276.703 118.489C275.353 119.258 273.963 120.335 272.534 121.719C271.184 123.104 269.795 124.719 268.365 126.565C267.016 128.333 265.666 130.179 264.316 132.102C263.601 134.717 263.006 137.024 262.529 139.024C262.053 140.946 261.616 142.715 261.219 144.33C260.902 145.868 260.584 147.253 260.266 148.483C259.949 149.637 259.671 150.752 259.433 151.829C259.195 152.598 258.48 153.367 257.289 154.136C256.098 154.828 254.827 155.405 253.478 155.867C252.128 156.328 250.976 156.559 250.024 156.559C248.991 156.559 248.555 156.213 248.714 155.52C248.793 155.059 249.071 154.021 249.547 152.406C249.944 150.791 250.46 148.906 251.096 146.753C251.651 144.523 252.247 142.177 252.882 139.716C253.517 137.255 254.113 134.909 254.669 132.679C255.066 130.91 255.502 128.949 255.979 126.795C256.376 124.949 256.852 122.796 257.408 120.335C258.043 117.874 258.758 115.182 259.552 112.26C260.108 111.798 260.663 111.452 261.219 111.221C261.854 110.914 262.49 110.683 263.125 110.529C263.76 110.298 264.435 110.145 265.15 110.068C265.785 110.068 266.42 110.106 267.055 110.183C267.611 110.26 268.167 110.414 268.723 110.645C269.358 110.798 269.914 111.068 270.39 111.452C270.152 111.99 269.874 112.759 269.556 113.759C269.239 114.682 268.921 115.682 268.604 116.759C268.286 117.989 267.889 119.258 267.413 120.566C268.445 119.181 269.596 117.797 270.867 116.413C272.216 114.951 273.646 113.644 275.154 112.49C276.742 111.337 278.41 110.414 280.156 109.722C281.903 108.953 283.69 108.568 285.516 108.568C287.025 108.568 288.375 108.991 289.566 109.837C290.757 110.683 291.67 111.875 292.305 113.413C293.02 114.874 293.417 116.643 293.496 118.72C293.655 120.796 293.377 123.065 292.662 125.526L291.352 130.602C290.955 132.217 290.439 134.14 289.804 136.37C289.248 138.524 288.533 140.908 287.66 143.523C287.184 145.215 286.985 146.676 287.064 147.907C287.223 149.137 288.017 149.752 289.446 149.752C290.876 149.752 292.662 148.906 294.806 147.214C297.029 145.522 299.253 143.484 301.476 141.1C303.699 138.716 305.803 136.293 307.788 133.832C309.773 131.294 311.282 129.256 312.314 127.718C313.029 126.718 313.704 126.065 314.339 125.757C314.974 125.449 315.45 125.411 315.768 125.642C316.165 125.872 316.364 126.411 316.364 127.257C316.364 128.026 316.046 129.026 315.411 130.256C314.855 131.333 313.981 132.756 312.79 134.525C311.679 136.293 310.329 138.178 308.741 140.177C307.153 142.177 305.446 144.215 303.62 146.291C301.793 148.291 299.888 150.137 297.903 151.829C295.918 153.444 293.933 154.751 291.948 155.751C290.042 156.828 288.216 157.366 286.469 157.366Z" fill="#B2B6AB"/>
</svg>
